<?xml version="1.0" standalone="no"?>
<!DOCTYPE svg PUBLIC "-//W3C//DTD SVG 20010904//EN"
 "http://www.w3.org/TR/2001/REC-SVG-20010904/DTD/svg10.dtd">
<svg version="1.0" xmlns="http://www.w3.org/2000/svg"
 width="200.000000pt" height="200.000000pt" viewBox="0 0 200.000000 200.000000"
 preserveAspectRatio="xMidYMid meet">
<metadata>
Created by potrace 1.11, written by Peter Selinger 2001-2013
</metadata>
<g transform="translate(0.000000,200.000000) scale(0.100000,-0.100000)"
fill="#000000" stroke="none">
<path d="M546 1788 c-66 -14 -114 -48 -137 -96 -23 -46 -26 -86 -32 -342 -2
-110 -6 -131 -27 -175 -37 -74 -96 -102 -217 -104 l-43 -1 0 -75 0 -75 63 -1
c117 -1 161 -21 194 -89 30 -60 32 -78 34 -263 1 -166 14 -243 47 -281 16 -17
64 -47 87 -53 66 -17 104 -21 215 -22 l130 -2 0 182 0 182 -40 35 c-83 70
-132 215 -132 392 -1 176 53 337 133 402 l39 31 0 184 0 184 -137 -2 c-76 -2
-155 -6 -177 -11z"/>
<path d="M1150 1619 c0 -165 2 -185 18 -195 27 -17 91 -152 106 -224 14 -65
16 -335 3 -389 -22 -86 -69 -182 -107 -216 -19 -17 -20 -30 -20 -203 l0 -184
128 5 c195 8 254 27 296 99 36 62 45 119 49 323 2 146 6 186 20 212 28 54 78
71 210 72 l57 1 0 75 0 75 -52 1 c-29 1 -57 1 -62 0 -4 -1 -32 5 -60 13 -56
16 -87 38 -101 71 -5 11 -12 119 -15 240 -8 242 -14 271 -73 333 -45 46 -109
63 -264 69 l-133 6 0 -184z"/>
</g>
</svg>
